<?xml version="1.0" encoding="utf-8"?>
<!-- Generator: Adobe Illustrator 24.1.2, SVG Export Plug-In . SVG Version: 6.00 Build 0)  -->
<svg version="1.1" id="Layer_1" xmlns="http://www.w3.org/2000/svg" xmlns:xlink="http://www.w3.org/1999/xlink" x="0px" y="0px"
	 viewBox="0 0 300 150" style="enable-background:new 0 0 300 150;" xml:space="preserve">
<g>
	<g>
		<path d="M78.2,11.2c0.1,0.2,0.2,0.4,0.2,0.6c0,0.1,0,0.2,0,0.3c0,28.4,0,56.8,0,85.2c0,0.3,0.2,0.7-0.3,0.7
			c-0.4,0-0.3-0.4-0.3-0.7c0-28.4,0-56.8,0-85.2c0-0.3,0.1-0.6,0.1-0.8C78,11.2,78.1,11.2,78.2,11.2z"/>
		<path d="M176.3,48.3c0-0.6-0.1-1.2-0.1-1.7c0-5.6,0-11.2,0-16.8c0-0.6,0.1-0.7,0.7-0.7c1.8,0,3.7,0,5.5,0c0.5,0,0.6,0.2,0.6,0.6
			c0,6.7,0,13.5,0,20.2c0,9.1,0,18.1,0,27.2c0,0.2,0,0.4,0,0.6c-0.7,0-1.4,0-2.1,0c-1.7,0-3.5,0-5.2,0c-0.6,0-0.8-0.2-0.9-0.7
			c-0.5-2.1-1-4.1-1.6-6.2c-0.9-3.5-1.9-7.1-2.8-10.6c-0.8-3.2-1.6-6.4-2.4-9.6c-0.3-1.3-0.7-2.6-1.1-4c-0.4-1.5-0.8-3-1.3-4.5
			c0,11.8,0,23.7,0,35.5c-0.2,0-0.3,0-0.5,0c-1.9,0-3.7,0-5.6,0c-0.7,0-0.8-0.1-0.8-0.8c0-15.5,0-31.1,0-46.6c0-0.8,0.3-1.3,1.2-1.2
			c2.6,0.1,5.3,0,7.9,0c0.4,0,0.6,0.1,0.7,0.6c1.4,5.7,2.9,11.4,4.4,17.1c0.5,2,1.1,4,1.6,6c0.5,1.8,0.9,3.6,1.4,5.4
			c0,0,0.1,0.1,0.2,0.1c0-1.3,0-2.7,0-4c0.1-0.1,0.2-0.1,0.2-0.2c0-0.6,0-1.2,0-1.7c0-0.1-0.1-0.2-0.2-0.2c0-1,0-2.1,0-3.1
			C176.3,48.6,176.3,48.4,176.3,48.3z"/>
		<path d="M211.8,53.3c0,4.1,0,8.2,0,12.3c0,1.9-0.1,3.7-0.7,5.5c-0.6,1.8-1.5,3.4-3.1,4.7c-1.6,1.3-3.5,2-5.4,2.4
			c-1.3,0.2-2.7,0-4,0.1c-1.1,0-2.2-0.3-3.2-0.6c-2.1-0.7-3.8-1.9-5-3.8c-1-1.4-1.5-3-1.8-4.7c-0.2-0.9-0.2-1.8-0.2-2.7
			c-0.1-8.5-0.1-17.1-0.1-25.6c0-1.9,0.2-3.8,0.8-5.6c0.6-1.8,1.6-3.4,3.1-4.7c1.6-1.3,3.4-2,5.4-2.3c1.3-0.2,2.7,0,4-0.1
			c1.1,0,2,0.3,3,0.6c1.2,0.4,2.4,0.9,3.3,1.7c0.8,0.7,1.5,1.5,2.1,2.4c0.8,1.2,1.3,2.5,1.5,3.9c0.1,1,0.3,2,0.3,2.9
			C211.8,44.4,211.8,48.8,211.8,53.3z M204.1,53.4C204.1,53.4,204.1,53.4,204.1,53.4c0-4,0-8,0-12c0-1,0-2.1-0.1-3.1
			c-0.2-1.4-0.9-2.5-2.4-2.9c-0.7-0.2-1.4-0.2-2.2-0.2c-1.1,0-2,0.5-2.6,1.4c-0.8,1.1-0.9,2.5-0.9,3.8c0,8.5,0,17.1,0,25.6
			c0,0.7,0,1.4,0.1,2c0.1,0.6,0.3,1.3,0.6,1.9c1,1.7,2.9,1.8,4.6,1.5c2-0.4,2.8-2,2.8-3.7C204.1,62.9,204.1,58.1,204.1,53.4z"/>
		<path d="M101.7,65.2c2.5,0,4.9,0,7.3,0c0.1,0.8,0.1,1.6,0.2,2.4c0.1,1.2,0.4,2.4,1.5,3.1c0.4,0.3,0.9,0.5,1.4,0.6
			c1,0.2,2.1,0.2,3.1-0.2c1.3-0.5,1.8-1.6,2.1-2.9c0.2-0.9,0.2-1.9,0.2-2.8c0-3.1,0-6.2,0-9.3c-0.6,0.7-1.1,1.5-1.8,2.2
			c-1,1-2.3,1.6-3.6,1.8c-1.7,0.3-3.4,0.2-5-0.4c-1.5-0.6-2.7-1.5-3.5-2.8c-1.1-1.7-1.6-3.5-1.7-5.4c-0.1-3.6-0.2-7.1-0.2-10.7
			c0-1.9,0.2-3.7,0.8-5.5c0.6-1.8,1.5-3.4,3-4.6c1.6-1.3,3.5-2,5.4-2.4c1.3-0.2,2.7,0,4-0.1c1.2,0,2.3,0.3,3.4,0.7
			c2.3,0.8,4.1,2.2,5.2,4.3c0.9,1.7,1.5,3.5,1.5,5.5c0,9.3,0.1,18.7,0.1,28c0,2.2-0.4,4.3-1.4,6.3c-0.9,1.7-2.1,3.1-3.9,3.9
			c-1.5,0.8-3.1,1.3-4.9,1.3c-1.3,0-2.7,0.1-4,0c-1.2-0.2-2.3-0.4-3.4-1c-0.8-0.5-1.6-0.9-2.3-1.5c-1-0.9-1.8-1.9-2.3-3.2
			c-0.5-1.2-0.9-2.4-1.1-3.7C101.7,67.7,101.8,66.5,101.7,65.2z M117.4,44.3c0,0-0.1,0-0.1,0c0-2,0.1-4.1,0-6.1
			c-0.1-1.1-0.7-2-1.7-2.6c-0.9-0.5-1.8-0.4-2.8-0.4c-1.1,0-2.8,0.9-3.1,2.2c-0.2,0.9-0.4,1.9-0.4,2.8c-0.1,2.6,0,5.1,0,7.7
			c0,0.9,0.1,1.8,0.2,2.6c0.2,1.2,0.9,2.1,2,2.6c1,0.4,2,0.4,3,0.2c0.6-0.1,1.1-0.4,1.6-0.8c1-0.8,1.2-1.9,1.3-3
			C117.4,47.8,117.4,46,117.4,44.3z"/>
		<path d="M129.9,65.3c2.5,0,4.9,0,7.3,0c0.1,0.8,0.1,1.6,0.2,2.4c0.1,1.3,0.5,2.5,1.6,3.2c0.4,0.2,0.8,0.4,1.2,0.5
			c1.1,0.2,2.1,0.2,3.1-0.2c1.3-0.5,1.8-1.6,2.1-2.8c0.2-0.9,0.2-1.8,0.2-2.7c0-3.2,0-6.3,0-9.5c-0.5,0.7-1,1.4-1.6,2.1
			c-1.1,1.2-2.5,1.7-4.1,2c-1.8,0.3-3.6,0.1-5.2-0.6c-1.3-0.6-2.3-1.5-3.1-2.7c-1-1.7-1.6-3.5-1.6-5.4c-0.1-3.6-0.2-7.1-0.2-10.7
			c0-1.8,0.2-3.7,0.8-5.5c0.6-1.8,1.5-3.4,3-4.6c1.6-1.3,3.5-2.1,5.4-2.4c1.3-0.2,2.7,0,4-0.1c1.2,0,2.3,0.3,3.3,0.6
			c2.3,0.8,4.1,2.2,5.3,4.3c0.9,1.7,1.5,3.5,1.5,5.5c0,9.3,0.1,18.7,0.1,28c0,2.2-0.4,4.3-1.4,6.3c-0.9,1.7-2.1,3.1-3.9,3.9
			c-1.5,0.8-3.1,1.3-4.9,1.3c-1.3,0-2.7,0.1-4,0c-1.1-0.2-2.3-0.3-3.3-1c-0.8-0.5-1.7-1-2.5-1.6c-0.9-0.8-1.7-1.8-2.1-3
			c-0.4-1.2-0.9-2.5-1.1-3.7C129.9,67.7,130,66.5,129.9,65.3z M145.6,44.3c0,0-0.1,0-0.1,0c0-2,0.1-4.1,0-6.1
			c-0.1-1.1-0.7-2-1.8-2.6c-0.9-0.5-1.8-0.4-2.7-0.4c-1.2,0-2.8,0.9-3.1,2.2c-0.2,0.9-0.4,1.9-0.4,2.8c-0.1,2.5,0,5,0,7.6
			c0,0.9,0.1,1.8,0.2,2.7c0.2,1.3,0.9,2.4,2.3,2.7c0.7,0.2,1.5,0.2,2.3,0.2c0.8,0,1.4-0.3,2-0.8c0.9-0.8,1.2-1.9,1.3-3
			C145.6,47.8,145.6,46.1,145.6,44.3z"/>
		<path d="M267.3,42.4c0-0.3-0.1-0.6-0.1-0.8c0-0.8,0-1.7,0-2.5c0-0.1,0.1-0.2,0.1-0.4c0.4-0.4,0.2-0.8,0.1-1.2
			c0.1-1.1,0.3-2.2,0.9-3.2c0.5-0.9,0.9-1.8,1.6-2.6c1.1-1.3,2.5-2.2,4.2-2.8c1.7-0.6,3.4-0.7,5.2-0.7c1.5,0,3,0.3,4.3,0.8
			c1.6,0.7,3,1.6,4.1,3.1c1.1,1.6,1.7,3.3,2,5.2c0.2,1.6,0.2,3.3,0.3,5c-2.3,0-4.5,0-6.7,0c-0.6-0.2-0.4-0.6-0.5-1.1
			c0-0.2-0.1-0.4-0.2-0.5c0-0.1,0-0.2,0-0.3c0.3-0.1,0.3-0.3,0-0.5c-0.2-0.9-0.2-1.8-0.5-2.6c-0.4-1.4-1.5-2.1-2.9-2.2
			c-0.9,0-1.8-0.1-2.7,0.4c-1.1,0.6-1.6,1.7-1.7,2.9c-0.2,1.3-0.1,2.7,0.3,4c0.4,1.3,1,2.5,1.9,3.4c1.5,1.6,3,3.1,4.6,4.6
			c2.4,2.3,4.8,4.6,6.4,7.5c0.8,1.5,1.4,3.1,1.6,4.8c0.1,1.4,0.2,2.8,0.2,4.2c-0.1,2.4-0.6,4.7-1.8,6.7c-1.5,2.4-3.7,3.8-6.4,4.4
			c-1.6,0.3-3.2,0.4-4.9,0.3c-1.5-0.1-3-0.5-4.4-1.1c-2.2-1.1-3.7-2.8-4.5-5.1c-0.5-1.3-0.8-2.7-0.9-4.1c0-1.3-0.1-2.7-0.1-4
			c0-0.3,0.1-0.5,0.4-0.5c2.3,0,4.5,0,6.8,0c0,0.8,0,1.6,0,2.3c0.1,1,0.1,2.1,0.3,3.1c0.3,1.5,1.6,2.5,3.1,2.5c0.6,0,1.2,0,1.7-0.1
			c1.7-0.3,2.5-1.5,2.7-3c0.6-3.6-0.3-6.7-2.9-9.3c-1.7-1.7-3.4-3.4-5.2-5c-2.1-1.9-3.9-4-5.3-6.5c-0.8-1.5-1.3-3-1.5-4.7
			C267.6,42.7,267.6,42.5,267.3,42.4z"/>
		<path d="M263.7,70.8c0,2.3,0,4.6,0,6.8c-0.2,0-0.3,0-0.5,0c-6.6,0-13.3,0-19.9,0c-0.8,0-0.8,0-0.8-0.8c0-15.6,0-31.2,0-46.8
			c0-0.8,0.3-1.1,1.1-1.1c6.4,0,12.9,0,19.3,0c0.7,0,0.7,0.1,0.7,0.7c0,2,0,4.1,0,6.1c-4.5,0-8.9,0-13.4,0c0,4.3,0,8.6,0,12.9
			c3.5,0,7.1,0,10.6,0c0,2.3,0,4.6,0,6.9c-3.5,0-7.1,0-10.6,0c0,5.1,0,10.1,0,15.1C254.8,70.8,259.3,70.8,263.7,70.8z"/>
		<path d="M223,35.9c-2.5,0-4.9,0-7.4,0c-0.5,0-0.7-0.1-0.7-0.7c0-1.8,0-3.7,0-5.5c0-0.5,0.2-0.7,0.7-0.7c7.5,0,15.1,0,22.6,0
			c0.3,0,0.6,0.1,0.6,0.5c0,2.1,0,4.2,0,6.4c-2.7,0-5.4,0-8.1,0c0,13.9,0,27.8,0,41.8c-0.6,0-1.1,0-1.7,0c-1.8,0-3.6,0-5.4,0
			c-0.5,0-0.7-0.2-0.7-0.7c0-13.5,0-26.9,0-40.4C223,36.4,223,36.1,223,35.9z"/>
		<path d="M176.2,52.8c0.1,0.1,0.2,0.2,0.2,0.2c0,0.6,0,1.2,0,1.7c0,0.1-0.1,0.1-0.2,0.2C176.2,54.3,176.2,53.5,176.2,52.8z"/>
		<path d="M267.4,37.5c0.1,0.4,0.3,0.8-0.1,1.2C267.3,38.3,267.4,37.9,267.4,37.5z"/>
		<path d="M176.3,48.3c0,0.2-0.1,0.4-0.1,0.5C176.3,48.6,176.3,48.4,176.3,48.3z"/>
		<path d="M267.3,42.4c0.3,0.1,0.3,0.3,0,0.4C267.3,42.7,267.3,42.5,267.3,42.4z"/>
		<path d="M33.7,81.6c0,3.5,0,7,0,10.3c-1.8-1.6-3.5-3.2-5.3-4.8c-1.6,1.6-3.3,3.3-5.2,5.1c0-3.6,0-7.1,0-10.7c-1.2,0-2.3,0-3.4,0
			c-1.8,0-3.4-0.3-5-1.3c-1.6-1-2.7-2.5-3.2-4.3c-0.2-0.6-0.2-1.3-0.2-1.9c0-14.3,0-28.7,0-43c0-1.8,0.7-3.5,1.9-4.9
			c1.2-1.5,2.8-2.4,4.7-2.8c0.4-0.1,0.8-0.1,1.2-0.1c10.9,0,21.8,0,32.6,0c0.8,0,1.1,0.3,1.2,1c0.1,0.7-0.5,1-1.2,1
			c-10.7,0-21.4,0-32,0c-3,0-5.4,1.7-6.2,4.5c-0.7,2.6,0.4,5.5,3,6.8c1,0.5,2.1,0.8,3.2,0.8c10.7,0,21.4,0,32.1,0
			c0.8,0,1.3,0.5,1.3,1.3c0,13.8,0,27.6,0,41.3c0,0.3,0,0.6-0.1,0.9c-0.2,0.5-0.5,0.8-1.2,0.8c-5.9,0-11.8,0-17.7,0
			C34.2,81.6,34,81.6,33.7,81.6z M51.2,79.6c0-13.5,0-26.9,0-40.3c-10.5,0-20.9,0-31.3,0c0,13.5,0,26.9,0,40.3
			C30.3,79.6,40.8,79.6,51.2,79.6z M17.8,79.4c0-0.2,0-0.4,0-0.5c0-13.1,0-26.2,0-39.3c0-0.1,0-0.2,0-0.2c-0.1-0.2-0.2-0.4-0.3-0.4
			c-0.5-0.2-1-0.3-1.4-0.5c-0.9-0.5-1.7-1.1-2.6-1.7c0,0.1,0,0.3,0,0.5c0,12.2,0,24.3,0,36.5c0,0.5,0,1,0.1,1.6
			C14,77.2,15.8,79.1,17.8,79.4z M25.3,81.6c0,1.9,0,3.7,0,5.7c0.2-0.2,0.4-0.2,0.5-0.4c0.6-0.6,1.3-1.3,1.9-1.9
			c0.6-0.6,1.2-0.6,1.8,0c0.6,0.6,1.3,1.3,1.9,1.9c0.1,0.1,0.2,0.1,0.3,0.2c0-1.9,0-3.7,0-5.5C29.5,81.6,27.4,81.6,25.3,81.6z"/>
		<path d="M35.9,32.1c-5.4,0-10.7,0-16.1,0c-0.9,0-1.5-0.7-1.1-1.4c0.1-0.3,0.6-0.4,0.9-0.6c0.1,0,0.2,0,0.3,0c10.7,0,21.3,0,32,0
			c0.5,0,0.8,0.1,1.1,0.5c0.4,0.6-0.1,1.5-0.9,1.5c-0.9,0-1.8,0-2.7,0C44.9,32.1,40.4,32.1,35.9,32.1z"/>
	</g>
	<g>
		<g>
			<path d="M204.7,120.5c-1.2,0.9-1.8,1.8-1.8,2.8c0,0.3,0.1,0.6,0.2,0.8c0.1,0.2,0.3,0.3,0.5,0.3c0.1,0,0.3-0.1,0.6-0.2
				c1.2-0.7,2.2-1.5,3.2-2.6s2.1-2.5,3.5-4.4C208,118.5,205.9,119.6,204.7,120.5z M127,121c-0.2,0.2-0.5,0.6-0.6,1.2
				c-0.2,0.6-0.3,1-0.3,1.3c0,0.2,0.1,0.3,0.2,0.5s0.2,0.2,0.4,0.2c0.2,0,0.3-0.1,0.5-0.2c0.2-0.1,0.5-0.4,1-0.8
				c0.4-0.4,0.7-0.6,0.9-0.7c0.2-0.2,0.6-0.5,1.2-1c0.6-0.5,1.1-0.9,1.4-1.3c0.3-0.3,0.6-0.6,0.8-1c0.2-0.4,0.4-0.8,0.4-1.2
				c-1,0.3-2.1,0.8-3.5,1.6S127.3,120.7,127,121z M282.5,103.1H18.6c-6.4,0-11.6,5.2-11.6,11.6v7.2c0,6.4,5.2,11.6,11.6,11.6h121.9
				c-0.2-0.4-0.3-0.8-0.3-1.2c0-0.3,0.1-0.6,0.2-0.8c0.8-1.7,2.6-4.8,5.3-9.1l-2.9,2.4c-1.4,1.2-2.3,1.8-2.8,1.8
				c-0.4,0-0.9-0.5-1.4-1.4c-0.4-0.8-0.6-1.4-0.7-2c-2.3,2.9-4.1,4.3-5.3,4.3c-0.5,0-0.9-0.2-1.1-0.6c-0.2-0.4-0.3-1-0.3-1.7
				c0-1,0.1-2.1,0.4-3.3c-1,1.1-1.8,2-2.6,2.7c-0.8,0.8-1.4,1.3-1.9,1.7c-0.5,0.4-0.8,0.6-1,0.6c-0.3,0-0.6-0.2-1-0.7
				c-0.4-0.5-0.7-1-0.9-1.7c-0.2-0.4-0.3-0.9-0.3-1.3c-1.2,1-2,1.8-2.6,2.3c-0.6,0.5-1.2,0.9-1.6,1.2c-0.5,0.3-0.9,0.4-1.3,0.4
				c-0.9,0-1.4-0.5-1.4-1.6c0-0.4,0.1-1,0.4-1.7c0.3-0.7,0.7-1.7,1.3-3c-1.6,2.1-2.8,3.5-3.6,4.4c-0.8,0.9-1.5,1.3-2,1.3
				c-0.4,0-0.8-0.2-1.2-0.5c-0.4-0.3-0.6-0.8-0.8-1.4c-0.2-0.5-0.2-1-0.3-1.5c-2.9,3-5,4.5-6.4,4.5c-0.5,0-0.9-0.2-1.2-0.6
				s-0.5-0.9-0.5-1.5c0-0.4,0.1-0.9,0.3-1.4c0.2-0.5,0.5-1.4,0.9-2.5c-0.2,0.1-0.3,0.3-0.4,0.4c-0.1,0.1-0.3,0.2-0.4,0.3
				c-0.1,0.1-0.2,0.2-0.4,0.3c-0.1,0.1-0.3,0.2-0.4,0.3V122c1.2-0.9,2.6-2.6,4.2-5c-0.2,0-0.3,0-0.5,0c-0.1,0-0.3,0-0.5,0
				c-0.7,0-1.1,0-1.5,0.1c-0.1,0-0.3,0.1-0.4,0.1c-0.1,0-0.2,0.1-0.2,0.1c0,0-0.1,0-0.1-0.1c0-0.4,0.2-0.9,0.7-1.6
				c0.4-0.6,0.7-1,1-1.3c0.3-0.3,0.7-0.5,1.2-0.6c0.5-0.1,1.1-0.2,2-0.2h0.7c0.6-1,1.1-1.7,1.6-2.2s1-0.6,1.6-0.6s0.9,0.1,0.9,0.4
				c0,0.1-0.2,0.5-0.7,1c-0.5,0.6-0.8,1-1.1,1.4c0.4,0,0.7,0.1,1,0.1s0.5,0.1,0.7,0.1c-0.6,1.1-1.4,2.3-2.4,3.5
				c-0.3,0-0.6,0-0.8-0.1c-0.2,0-0.4,0-0.6,0c-0.2,0-0.5,0-0.8-0.1c-0.6,0.9-1.1,1.8-1.5,2.5c-0.4,0.7-0.7,1.4-0.9,2
				c-0.2,0.6-0.3,1.2-0.3,1.7c0,0.7,0.3,1.1,0.9,1.1c0.4,0,1-0.2,1.6-0.7c0.7-0.4,1.5-1.1,2.6-1.9c0-0.1,0-0.2,0.1-0.3
				c0.1-0.3,0.2-0.7,0.5-1.1c0.2-0.4,0.5-0.9,0.9-1.3c0.4-0.5,0.8-1,1.4-1.6c0.3-0.4,0.6-0.7,0.8-1c0.2-0.3,0.4-0.4,0.7-0.5
				c0.2-0.1,0.6-0.1,1-0.1c0.4,0,0.7,0,1,0.1c0.3,0.1,0.5,0.2,0.5,0.3c0,0.2-0.2,0.5-0.5,1s-0.8,1.1-1.6,1.8
				c-0.7,0.7-1.6,1.4-2.5,2.1c-0.2,0.6-0.3,1.1-0.3,1.5c0,0.5,0.2,0.7,0.5,0.7c0.1,0,0.4-0.1,0.7-0.3c0.3-0.2,0.8-0.6,1.6-1.3
				c0.7-0.6,1.4-1.2,2-1.7c0.4-0.4,0.9-0.9,1.5-1.6c0.6-0.7,1-1.3,1.4-1.6c0.8-0.8,1.4-1.4,1.7-1.6c0.3-0.3,0.6-0.4,0.9-0.4
				c0.3,0,0.4,0.1,0.5,0.2s0.1,0.5,0.1,1c0,0.2,0,0.4-0.1,0.5c0,0.1-0.1,0.3-0.3,0.5c-0.1,0.2-0.4,0.6-0.8,1.2
				c-0.4,0.6-0.9,1.3-1.5,2.1c-0.3,0.4-0.6,0.9-0.8,1.4c-0.2,0.5-0.3,0.9-0.3,1.2c0,0.6,0.2,0.8,0.7,0.8c0.4,0,0.8-0.2,1.3-0.5
				c0.4-0.3,1.1-0.8,2-1.4c0.1-0.9,0.6-1.9,1.5-2.8c1-1.1,2.2-1.9,3.5-2.6c1.3-0.7,2.3-1,3-1c0.5,0,1.1,0.3,1.6,1
				c0.8-1.7,1.7-3.3,2.4-4.6c0.8-1.3,1.4-2.3,1.9-3c0.5-0.7,0.9-1,1.1-1c0.2,0,0.5,0.1,0.7,0.3c0.2,0.2,0.3,0.5,0.3,0.8
				c0,0.6-0.4,1.5-1.3,2.9c-0.8,1.4-1.7,2.7-2.5,4c-0.8,1.3-1.5,2.6-2.1,3.8s-0.9,2.4-0.9,3.5c0,1,0.3,1.5,1,1.5
				c0.4,0,0.9-0.2,1.5-0.6c0.6-0.4,1.4-1.1,2.4-2c0-0.3,0.1-0.6,0.2-0.8c0.2-0.4,0.5-1,1-1.7c0.7-0.9,1.3-1.7,1.9-2.3
				c0.6-0.6,1.2-1.1,1.6-1.5c0.5-0.3,0.8-0.5,1-0.5c0.3,0,0.6,0.2,0.9,0.5s0.4,0.6,0.4,0.9c0,0.2-0.2,0.5-0.5,1
				c-0.3,0.5-0.8,1-1.4,1.7s-1.6,1.5-2.7,2.5l-0.3,0.9c-0.1,0.2-0.1,0.3-0.1,0.5c0,0.3,0.1,0.4,0.4,0.4c0.3,0,1-0.4,2.2-1.1
				c1.1-0.8,2.4-1.8,3.7-3.1c0.5-0.5,0.9-1,1.3-1.3s0.7-0.8,0.9-1.1c0.3-0.3,0.5-0.6,0.7-0.8c0.2-0.2,0.3-0.3,0.5-0.3
				c0.3,0,0.5,0.1,0.6,0.3c0.2,0.3,0.2,0.6,0.2,1.1c0,0.3-0.1,0.7-0.4,1.1c-0.3,0.4-0.8,1.2-1.5,2.2c-0.7,1-1.5,2.1-2.2,3.3
				s-1.5,2.4-2.2,3.8c0,0,0.4-0.4,1-1c0.6-0.6,1.3-1.3,2-1.9s1.3-1.2,1.8-1.6s1-0.9,1.7-1.4v1.1c-1.5,1.6-2.8,3-4,4.4
				c-1.2,1.4-2.1,2.5-2.8,3.4c-0.7,0.8-1,1.3-1.1,1.5c-0.3,0.4-0.6,0.7-0.8,1.1c-0.1,0.1-0.2,0.2-0.3,0.4h140.6
				c6.4,0,11.6-5.2,11.6-11.6v-7.2C294.2,108.3,289,103.1,282.5,103.1z M103.5,110.9c-0.2,0.4-0.5,0.7-0.7,0.9
				c-0.3,0.1-0.7,0.3-1.4,0.6c-0.7,0.2-1.3,0.5-1.8,0.7c-0.5,0.3-1,0.5-1.3,0.7s-0.6,0.4-0.7,0.4c-0.1,0-0.2,0-0.2-0.1
				c0-0.2,0.2-0.5,0.6-0.8c0.4-0.4,0.9-0.7,1.4-1c0.6-0.3,0.9-0.5,0.9-0.6c0-0.1-0.3-0.2-1-0.2c-2,0-3.9,0.2-5.7,0.5
				c-1.7,0.4-3.1,0.8-4.1,1.4c-1,0.6-1.5,1.2-1.5,1.8c0,0.4,0.2,0.6,0.6,0.8c0.4,0.2,1.3,0.4,2.7,0.8s2.7,0.8,3.8,1.3
				c1.6,0.7,2.8,1.4,3.6,2.1c0.8,0.7,1.2,1.5,1.2,2.4c0,0.6-0.2,1.2-0.5,1.8s-0.7,1.2-1.3,1.7c-0.6,0.5-1.3,0.9-2,1.3
				c-0.7,0.3-1.5,0.5-2.5,0.8c-1,0.2-2.1,0.4-3.2,0.6c-1.2,0.1-2.3,0.2-3.3,0.2c-1.9,0-3.5-0.2-4.7-0.5c-1.2-0.4-1.8-0.9-1.8-1.6
				c0-0.3,0.2-0.8,0.6-1.5c0.4-0.7,0.9-1.1,1.4-1.4c0.5-0.2,0.9-0.3,1.4-0.3c0.4,0,0.7,0,0.7,0.2c0,0,0,0.1,0,0.1s-0.1,0.1-0.1,0.1
				s-0.1,0-0.1,0.1c-0.2,0.1-0.4,0.2-0.5,0.2c-0.1,0-0.2,0.1-0.3,0.1c-0.1,0-0.1,0.1-0.1,0.2c0,0.2,1.1,0.3,3.4,0.3
				c2,0,3.6-0.1,4.9-0.2s2.4-0.4,3.4-0.8s1.9-0.9,2.6-1.5c-0.3-0.5-0.7-0.9-1.2-1.3c-0.6-0.4-1.2-0.7-1.9-1
				c-0.7-0.2-1.4-0.4-2.2-0.5c-2.2-0.3-4.3-1-6.2-2.1c-0.2-0.1-0.3-0.3-0.5-0.5c-0.2-0.3-0.3-0.5-0.3-0.8c0-0.9,0.2-1.9,0.5-2.8
				s0.7-1.7,1.2-2.2c0.8-0.9,2.3-1.7,4.4-2.3c2.1-0.7,4.5-1,7.2-1c1.6,0,2.8,0.1,3.7,0.4c0.9,0.2,1.3,0.6,1.3,1.1
				C103.8,109.8,103.7,110.4,103.5,110.9z M179,111.4c-2,0-3.9,0.2-5.7,0.5c-1.7,0.4-3.1,0.8-4.1,1.4c-1,0.6-1.5,1.2-1.5,1.8
				c0,0.4,0.2,0.6,0.6,0.8c0.4,0.2,1.3,0.4,2.7,0.8c1.4,0.4,2.7,0.8,3.8,1.3c1.6,0.7,2.8,1.4,3.6,2.1c0.8,0.7,1.2,1.5,1.2,2.4
				c0,0.6-0.2,1.2-0.5,1.8c-0.3,0.6-0.7,1.2-1.3,1.7c-0.6,0.5-1.3,0.9-2,1.3c-0.7,0.3-1.5,0.5-2.5,0.8c-1,0.2-2.1,0.4-3.2,0.6
				c-1.2,0.1-2.3,0.2-3.3,0.2c-1.9,0-3.5-0.2-4.7-0.5s-1.8-0.9-1.8-1.6c0-0.3,0.2-0.8,0.6-1.5c0.4-0.7,0.9-1.1,1.4-1.4
				c0.5-0.2,0.9-0.3,1.4-0.3c0.4,0,0.7,0,0.7,0.2c0,0,0,0.1,0,0.1c0,0-0.1,0.1-0.1,0.1l-0.1,0.1c-0.2,0.1-0.4,0.2-0.5,0.2
				c-0.1,0-0.2,0.1-0.3,0.1c-0.1,0-0.1,0.1-0.1,0.2c0,0.2,1.1,0.3,3.4,0.3c2,0,3.6-0.1,4.9-0.2s2.4-0.4,3.4-0.8
				c1-0.4,1.9-0.9,2.6-1.5c-0.3-0.5-0.7-0.9-1.2-1.3c-0.6-0.4-1.2-0.7-1.9-1c-0.7-0.2-1.4-0.4-2.2-0.5c-2.2-0.3-4.3-1-6.2-2.1
				c-0.2-0.1-0.3-0.3-0.5-0.5c-0.2-0.3-0.3-0.5-0.3-0.8c0-0.9,0.2-1.9,0.5-2.8s0.7-1.7,1.2-2.2c0.8-0.9,2.3-1.7,4.4-2.3
				c2.1-0.7,4.5-1,7.2-1c1.6,0,2.8,0.1,3.7,0.4c0.9,0.2,1.3,0.6,1.3,1.1c0,0.8-0.1,1.4-0.3,1.9c-0.2,0.4-0.5,0.7-0.7,0.9
				c-0.3,0.1-0.7,0.3-1.4,0.6c-0.7,0.2-1.3,0.5-1.8,0.7c-0.5,0.3-1,0.5-1.3,0.7c-0.4,0.2-0.6,0.4-0.7,0.4c-0.1,0-0.2,0-0.2-0.1
				c0-0.2,0.2-0.5,0.6-0.8c0.4-0.4,0.9-0.7,1.4-1c0.6-0.3,0.9-0.5,0.9-0.6C180,111.5,179.7,111.4,179,111.4z M234.4,113.7
				c0.3,0,0.5,0.1,0.7,0.1c-0.6,1.1-1.4,2.3-2.4,3.5c-0.3,0-0.6,0-0.8-0.1c-0.2,0-0.4,0-0.6,0c-0.2,0-0.5,0-0.8-0.1
				c-0.6,0.9-1.1,1.8-1.5,2.5s-0.7,1.4-0.9,2c-0.2,0.6-0.3,1.2-0.3,1.7c0,0.7,0.3,1.1,0.9,1.1c0.4,0,1-0.2,1.6-0.7s1.6-1.1,2.7-2
				v1.1c-3,3.1-5.2,4.7-6.6,4.7c-0.5,0-0.9-0.2-1.2-0.6c-0.3-0.4-0.5-0.9-0.5-1.5c0-0.4,0.1-0.9,0.3-1.4c0.2-0.5,0.5-1.4,0.9-2.5
				c-0.2,0.1-0.3,0.3-0.4,0.4c-0.1,0.1-0.3,0.2-0.4,0.3c-0.1,0.1-0.2,0.2-0.4,0.3c-0.1,0-0.1,0.1-0.2,0.1v0
				c-0.9,0.9-1.7,1.7-2.3,2.2c-0.6,0.5-1.1,1-1.7,1.3c-0.5,0.3-1,0.5-1.4,0.5c-0.5,0-0.8-0.2-1.2-0.6c-0.3-0.4-0.5-1-0.5-1.8
				c0-0.5,0.1-1,0.4-1.6s0.6-1.2,1.1-1.9s1-1.4,1.6-2.1c-0.3,0.1-0.7,0.1-1,0.2c-0.4,0.1-0.8,0.1-1.2,0.2c-0.4,0.1-0.8,0.1-1,0.2
				c-0.6,1.2-1.5,2.3-2.7,3.3v0.1c-2.8,3-4.8,4.5-6,4.5c-0.4,0-0.7-0.1-0.9-0.4c-0.2-0.3-0.3-0.7-0.3-1.2c0-0.8,0.3-2.1,0.9-3.7
				c-1.6,1.7-2.8,3-3.6,3.7c-0.8,0.7-1.4,1.1-1.9,1.1c-0.2,0-0.5-0.2-0.9-0.6c-0.4-0.4-0.7-0.9-1-1.6c-0.2-0.5-0.3-1-0.4-1.6
				c-0.9,0.8-1.7,1.5-2.4,2.1c-0.8,0.6-1.5,1.1-2,1.4c-0.6,0.3-1.1,0.5-1.4,0.5c-0.3,0-0.6-0.1-0.9-0.4c-0.2-0.3-0.3-0.6-0.3-0.9
				c0-0.4,0.1-0.7,0.2-1.1c0.1-0.4,0.3-0.8,0.6-1.3s0.6-1.1,1.1-1.9s0.9-1.4,1.2-2c-1.1,0.9-2.1,1.8-3,2.6c-0.9,0.8-1.6,1.5-2.1,2.2
				c-0.6,0.6-1,1.1-1.3,1.5c-0.6,0.7-1.2,1-1.7,1c-0.6,0-0.9-0.4-0.9-1.2c0-0.3,0.2-0.9,0.6-1.7c0.4-0.8,1-1.9,1.8-3.2
				c0.1-0.1,0.1-0.2,0.1-0.4c0-0.2-0.1-0.3-0.3-0.3c-0.2,0-0.6,0.2-1,0.7c-0.5,0.4-1.3,1.4-2.7,2.8c-0.4,0.4-0.8,0.9-1.2,1.6
				c-0.5,0.6-0.8,1.1-1,1.3s-0.4,0.3-0.6,0.3c-0.4,0-0.8-0.3-1.1-1c-0.3-0.7-0.5-1.5-0.5-2.4c0-0.7,0.1-1.2,0.3-1.7
				c0.2-0.5,0.6-1.1,1-1.8c0.7-1,1.3-1.8,1.8-2.2c0.5-0.4,1-0.7,1.5-0.7c0.3,0,0.6,0.1,0.8,0.2c0.2,0.1,0.3,0.3,0.3,0.5
				c0,0.2-0.2,0.6-0.6,1.1c-0.4,0.5-0.9,1-1.5,1.6c-0.3,0.3-0.6,0.7-0.9,1.2c-0.3,0.5-0.4,0.8-0.4,1c0,0.3,0.1,0.4,0.3,0.4
				c0.2,0,0.7-0.4,1.4-1.1s1.6-1.6,2.5-2.5s1.8-1.6,2.5-2.2c0.8-0.6,1.4-0.9,2-0.9c0.3,0,0.6,0.1,0.8,0.4c0.2,0.2,0.3,0.5,0.3,0.9
				c0,0.2-0.2,0.7-0.5,1.3c-0.3,0.6-0.8,1.4-1.4,2.3s-1.5,2-2.5,3.3c1.5-1.3,2.8-2.5,3.9-3.4c1.1-1,1.9-1.7,2.6-2.3
				c0.6-0.6,1.2-1,1.6-1.4c0.5-0.4,0.8-0.6,0.9-0.6c0.3,0,0.5,0.2,0.7,0.8s0.3,0.9,0.3,1.2c0,0.2-0.4,0.7-1.1,1.4s-1.2,1.4-1.6,1.8
				c-0.3,0.5-0.5,0.9-0.5,1.4c0,0.3,0.1,0.5,0.3,0.7s0.4,0.3,0.7,0.3c0.3,0,0.7-0.2,1.1-0.5c0.4-0.3,1-0.8,1.9-1.5
				c0-0.2,0.1-0.4,0.1-0.6c0.1-0.3,0.3-0.7,0.6-1c0.3-0.4,0.7-0.8,1.4-1.4c1.7-1.5,3.3-2.6,4.9-3.3c1.6-0.7,2.8-1.1,3.7-1.1
				c0.2,0,0.4,0.1,0.6,0.3s0.4,0.4,0.5,0.7c0.1,0.2,0.2,0.4,0.2,0.5c0,0.2-0.1,0.3-0.2,0.4c-0.2,0.1-0.4,0.2-0.8,0.3
				c0.1,0.2,0.2,0.4,0.3,0.7c0.1,0.3,0.2,0.5,0.3,0.7c0.1,0.2,0.1,0.3,0.1,0.4c0,0.3-0.3,0.7-0.8,1.4c-0.5,0.7-0.9,1.2-1.1,1.6
				s-0.3,0.7-0.3,1.2c0,0.8,0.4,1.2,1.1,1.2c0.7,0,1.8-0.6,3.3-1.9V122c0.6-0.7,1-1.3,1.4-1.8c-0.4-0.1-0.6-0.3-0.8-0.4
				c-0.2-0.2-0.2-0.4-0.2-0.8c0-0.4,0.2-0.9,0.5-1.5c0.3-0.6,0.7-1.1,1.2-1.7c0.5-0.5,0.9-0.8,1.3-1c0.2-0.1,0.3-0.1,0.4-0.1
				c0.2,0,0.3,0.1,0.3,0.3c0,0.2-0.2,0.6-0.5,1.1c2.3-0.3,3.7-0.5,4.3-0.5c0.2,0,0.4,0,0.5,0.1c0.2,0.1,0.3,0.3,0.5,0.7
				c0.1,0.4,0.2,0.7,0.2,1.1c0,0.2-0.1,0.5-0.3,0.7c-0.2,0.3-0.6,0.6-1.1,1.2c-0.6,0.6-1.1,1.3-1.5,2c-0.4,0.7-0.6,1.3-0.6,1.6
				c0,0.5,0.3,0.8,1,0.8c0.6,0,1.7-0.6,3.3-1.8v0c1.2-0.9,2.6-2.6,4.2-5c-0.2,0-0.3,0-0.5,0c-0.1,0-0.3,0-0.5,0
				c-0.7,0-1.1,0-1.5,0.1c-0.1,0-0.3,0.1-0.4,0.1c-0.1,0-0.2,0.1-0.2,0.1s-0.1,0-0.1-0.1c0-0.4,0.2-0.9,0.7-1.6c0.4-0.6,0.7-1,1-1.3
				s0.7-0.5,1.2-0.6c0.5-0.1,1.1-0.2,2-0.2h0.7c0.6-1,1.1-1.7,1.6-2.2s1-0.6,1.6-0.6c0.6,0,0.9,0.1,0.9,0.4c0,0.1-0.2,0.5-0.7,1
				c-0.5,0.6-0.8,1-1.1,1.4C233.8,113.6,234.2,113.6,234.4,113.7z"/>
		</g>
	</g>
</g>
</svg>
